<?xml version="1.0" encoding="utf-8"?>
<svg xmlns="http://www.w3.org/2000/svg" xmlns:xlink="http://www.w3.org/1999/xlink">
    <symbol id="icon--chevron--right" fill-rule="evenodd" viewBox="0 0 7 12">
        <path fill-rule="nonzero" d="M5.569 5.994L0 .726.687 0l6.336 5.994-6.335 6.002L0 11.27z"/>
    </symbol>
    <symbol id="icon--chevron--down" fill-rule="evenodd" viewBox="0 0 12 7">
        <path fill-rule="nonzero" d="M6.002 5.55L11.27 0l.726.685L6.003 7 0 .685.726 0z"/>
    </symbol>
    <symbol id="icon--chevron--left" fill-rule="evenodd" viewBox="0 0 7 12">
        <path fill-rule="nonzero" d="M1.45 6.002L7 11.27l-.685.726L0 6.003 6.315 0 7 .726z"/>
    </symbol>
    <symbol id="icon--copy" fill-rule="evenodd" viewBox="0 0 16 16">
        <path d="M1 10H0V2C0 .9.9 0 2 0h8v1H2c-.6 0-1 .5-1 1v8z"/>
        <path d="M11 4.2V8h3.8L11 4.2zM15 9h-4c-.6 0-1-.4-1-1V4H4.5c-.3 0-.5.2-.5.5v10c0 .3.2.5.5.5h10c.3 0 .5-.2.5-.5V9zm-4-6c.1 0 .3.1.4.1l4.5 4.5c0 .1.1.3.1.4v6.5c0 .8-.7 1.5-1.5 1.5h-10c-.8 0-1.5-.7-1.5-1.5v-10C3 3.7 3.7 3 4.5 3H11z"/>
    </symbol>
    <symbol id="icon--search" fill-rule="evenodd" viewBox="0 0 16 16">
        <path fill-rule="nonzero" d="M6.5 12a5.5 5.5 0 1 0 0-11 5.5 5.5 0 0 0 0 11zm4.936-1.27l4.563 4.557-.707.708-4.563-4.558a6.5 6.5 0 1 1 .707-.707z"/>
    </symbol>
    <symbol id="icon--caret--down" fill-rule="evenodd" viewBox="0 0 10 5">
        <path d="M0 0l5 4.998L10 0z"/>
    </symbol>
    <symbol id="icon--caret--up" fill-rule="evenodd" viewBox="0 0 10 5">
        <path d="M0 5L5 .002 10 5z"/>
    </symbol>
    <symbol id="icon--info--solid" fill-rule="evenodd" viewBox="0 0 16 16">
        <path d="M8 16A8 8 0 1 1 8 0a8 8 0 0 1 0 16zm1-3V7H7v6h2zM8 5a1 1 0 1 0 0-2 1 1 0 0 0 0 2z"/>
    </symbol>
    <symbol id="icon--error--solid" fill-rule="evenodd" viewBox="0 0 16 16">
        <path d="M8 16A8 8 0 1 1 8 0a8 8 0 0 1 0 16zM3.293 4.707l8 8 1.414-1.414-8-8-1.414 1.414z"/>
    </symbol>
    <symbol id="icon--checkmark--solid" fill-rule="evenodd" viewBox="0 0 16 16">
        <path d="M8 16A8 8 0 1 1 8 0a8 8 0 0 1 0 16zm3.293-11.332L6.75 9.21 4.707 7.168 3.293 8.582 6.75 12.04l5.957-5.957-1.414-1.414z"/>
    </symbol>
    <symbol id="icon--warning--solid" fill-rule="evenodd" viewBox="0 0 16 16">
        <path fill-rule="nonzero" d="M.75 16a.75.75 0 0 1-.67-1.085L7.33.415a.75.75 0 0 1 1.34 0l7.25 14.5A.75.75 0 0 1 15.25 16H.75zm6.5-10v5h1.5V6h-1.5zM8 13.5A.75.75 0 1 0 8 12a.75.75 0 0 0 0 1.5z"/>
    </symbol>
    <symbol id="icon--overflow-menu" fill-rule="evenodd" viewBox="0 0 3 15">
        <path d="M0 1.5a1.5 1.5 0 1 1 3 0 1.5 1.5 0 1 1-3 0M0 7.5a1.5 1.5 0 1 1 3 0 1.5 1.5 0 1 1-3 0M0 13.5a1.5 1.5 0 1 1 3 0 1.5 1.5 0 1 1-3 0"/>
    </symbol>
    <symbol id="icon--close--solid" fill-rule="evenodd" viewBox="0 0 16 16">
        <path d="M8 6.586L5.879 4.464 4.464 5.88 6.586 8l-2.122 2.121 1.415 1.415L8 9.414l2.121 2.122 1.415-1.415L9.414 8l2.122-2.121-1.415-1.415L8 6.586zM8 16A8 8 0 1 1 8 0a8 8 0 0 1 0 16z"/>
    </symbol>
    <symbol id="icon--selectable" fill-rule="evenodd" viewBox="0 0 16 16">
        <path d="M8 16A8 8 0 1 1 8 0a8 8 0 0 1 0 16zm3.646-10.854L6.75 10.043 4.354 7.646l-.708.708 3.104 3.103 5.604-5.603-.708-.708z"/>
    </symbol>
    <symbol id="icon--help--outline" fill-rule="evenodd" viewBox="0 0 16 16">
        <path fill-rule="nonzero" d="M8 14.5a6.5 6.5 0 1 0 0-13 6.5 6.5 0 0 0 0 13zM8 16A8 8 0 1 1 8 0a8 8 0 0 1 0 16z"/>
        <path fill-rule="nonzero" d="M8.75 9.364V10.5h-1.5V7.863h1.5A1.682 1.682 0 0 0 8.678 4.5h-.996C6.753 4.5 6 5.253 6 6.182H4.5A3.182 3.182 0 0 1 7.682 3h.996a3.182 3.182 0 0 1 .072 6.364z"/>
        <path d="M7 13a1 1 0 1 1 2 0 1 1 0 1 1-2 0"/>
    </symbol>
    <symbol id="icon--calendar" fill-rule="evenodd" viewBox="0 0 14 16">
        <path fill-rule="nonzero" d="M0 5h14v1H0V5zm3-5h1v4H3V0zm7 0h1v4h-1V0zM0 2.5A1.5 1.5 0 0 1 1.5 1h11A1.5 1.5 0 0 1 14 2.5v12a1.5 1.5 0 0 1-1.5 1.5h-11A1.5 1.5 0 0 1 0 14.5v-12zm1 0v12a.5.5 0 0 0 .5.5h11a.5.5 0 0 0 .5-.5v-12a.5.5 0 0 0-.5-.5h-11a.5.5 0 0 0-.5.5z"/>
    </symbol>
    <symbol id="icon--close" fill-rule="evenodd" viewBox="0 0 10 10">
        <path fill-rule="nonzero" d="M6.32 5L10 8.68 8.68 10 5 6.32 1.32 10 0 8.68 3.68 5 0 1.32 1.32 0 5 3.68 8.68 0 10 1.32 6.32 5z"/>
    </symbol>
</svg>
